<?xml version="1.0" encoding="utf-8"?>
<!-- Generator: Adobe Illustrator 23.0.3, SVG Export Plug-In . SVG Version: 6.00 Build 0)  -->
<svg version="1.1" id="Layer_1" xmlns="http://www.w3.org/2000/svg" xmlns:xlink="http://www.w3.org/1999/xlink" x="0px" y="0px"
	 viewBox="0 0 43 33" style="enable-background:new 0 0 43 33;" xml:space="preserve">
<style type="text/css">
	.st0{fill:#1F6030;}
	.st1{fill:#3A73B9;}
	.st2{fill:#76D5A9;}
	.st3{font-family:'Electrik';}
	.st4{font-size:8.2358px;}
	.st5{fill:none;}
</style>
<g>
	<path class="st0" d="M30.3,26.4c-2.4,1.8-5.3,2.7-8.2,2.6c-3.8-0.2-7.6-2.2-10-5.3c-2-2.6-3-5.8-2.8-9.1c0.3-3.3,2-6.4,4.7-8.2
		c-1.1,1.1-2.1,2.5-2.8,3.9c1.8,0.7,3.9-0.1,5.2-1.7c1.2-1.6,1.7-3.5,1.8-5.4c-1.7-0.1-3.7,0.3-5.1,1.5c-1,0.9-1.6,2-2.2,3.1
		c-0.9,1.7-1.9,3.4-2.5,5.3C7,17.5,8.7,22.4,12,25.7c0.6,0.6,1.1,1,1.7,1.5c0.6,0.4,1.2,0.8,1.9,1.1c0.7,0.3,1.3,0.6,2.1,0.8
		c0.7,0.2,1.5,0.3,2.2,0.4c0.8,0.1,1.5,0.1,2.2,0.1c0.3,0,0.7,0,1-0.1c0.7-0.1,1.3-0.2,2-0.3c0.7-0.2,1.3-0.4,2-0.7
		c0.7-0.3,1.2-0.7,1.8-1s1.1-0.8,1.7-1.3c0.6-0.4,1-1,1.3-1.6c0.1-0.1,0.1-0.2,0.2-0.2C31.7,25.1,31,25.8,30.3,26.4z"/>
	<path class="st1" d="M34.6,10.3c-0.4-1.5-1.6-2.8-3-3.3c-0.8,1.6-1.3,3.4-1.1,5.2c0.2,1.8,1.5,3.5,3.3,3.8c0-1.1,0.1-2.2,0.1-3.4
		c0.9,3.3,0.1,6.8-1.9,9.4s-5.2,4.4-8.4,4.8c1.8-3.4,4.4-6.3,7.5-8.4c-2.4,0.4-4.5,1.5-6.5,2.8c-1.9,1.3-3.7,3-5.5,4.6
		c-0.1,0.1-0.3,0.2-0.4,0.2s-0.2,0-0.3-0.1c-0.8-0.3-1.5-0.7-2.1-1.1c3.9-3.4,8.8-5.8,13.8-7.1c-5.5,0.7-11,2.6-15.6,5.6
		c-0.6-0.6-1.1-1.2-1.6-1.9c4.3-2.8,9.3-4,14.4-4.6c-0.1,0-0.3,0-0.4-0.1c-0.1,0-0.3,0-0.4-0.1c-0.1,0-0.3,0-0.4,0
		c-0.1,0-0.3,0-0.4,0s-0.3,0-0.4,0c-0.1,0-0.3,0-0.4,0c-0.1,0-0.3,0-0.4,0s-0.3,0-0.4,0c-0.1,0-0.3,0-0.4,0c-0.1,0-0.3,0-0.4,0
		s-0.3,0-0.4,0c-0.1,0-0.3,0-0.4,0c-0.1,0-0.3,0-0.4,0.1c-0.1,0-0.3,0-0.4,0.1c-0.1,0-0.3,0-0.4,0.1c-0.1,0-0.3,0.1-0.4,0.1
		c-0.1,0-0.3,0.1-0.4,0.1c-0.1,0-0.3,0.1-0.4,0.1s-0.3,0.1-0.4,0.1c-0.1,0-0.3,0.1-0.4,0.1c-0.1,0-0.3,0.1-0.4,0.1s-0.3,0.1-0.4,0.1
		c-0.1,0-0.3,0.1-0.4,0.1c-0.1,0-0.3,0.1-0.4,0.1s-0.3,0.1-0.4,0.1s-0.3,0.1-0.4,0.1c-0.1,0-0.3,0.1-0.4,0.1
		c-0.1,0.1-0.3,0.1-0.4,0.2c-0.1,0.1-0.3,0.1-0.4,0.2C14,19,13.8,19,13.6,19.1c-0.1,0.1-0.3,0.1-0.4,0.2c-0.1,0.1-0.3,0.1-0.4,0.2
		c-0.1,0.1-0.3,0.1-0.4,0.2c-0.1,0.1-0.3,0.1-0.4,0.2c-0.1,0.1-0.3,0.1-0.4,0.2c-0.1,0-0.1,0.1-0.1,0.2c0,0.1,0,0.1,0,0.1
		c0,0.1,0,0.1,0.1,0.2c0,0.1,0.1,0.2,0.2,0.3c0.1,0.1,0.1,0.2,0.2,0.3c0.1,0.1,0.1,0.2,0.2,0.3c0.1,0.1,0.1,0.2,0.2,0.3
		c0.1,0.1,0.1,0.2,0.2,0.3c0.1,0.1,0.1,0.2,0.2,0.3c0.1,0.1,0.1,0.2,0.2,0.3c0.1,0.1,0.1,0.2,0.2,0.3c0.1,0.1,0.1,0.2,0.2,0.3
		c0.1,0.1,0.2,0.2,0.2,0.3c0.1,0.1,0.2,0.2,0.2,0.3c0.1,0.1,0.2,0.2,0.3,0.2c0.1,0.1,0.2,0.2,0.3,0.2c0.1,0.1,0.2,0.2,0.3,0.2
		c0.1,0.1,0.2,0.2,0.3,0.2c0.1,0.1,0.2,0.1,0.3,0.2c0.1,0.1,0.2,0.1,0.3,0.2c0.1,0.1,0.2,0.1,0.3,0.2s0.2,0.1,0.3,0.2
		c0.1,0.1,0.2,0.1,0.3,0.2c0.1,0.1,0.2,0.1,0.3,0.2c0.1,0.1,0.2,0.1,0.3,0.2s0.2,0.1,0.3,0.2c0,0,0.1,0,0.1,0.1
		c2.9,1.3,6.4,1.3,9.4,0.2c3.4-1.2,6.1-4,7.2-7.4c0.4-1.6,0.7-3.3,0.8-4.8c0.1-1.6,0.1-3.3-0.3-4.8C34.6,10.3,34.6,10.3,34.6,10.3z"
		/>
	<path class="st2" d="M21.2,29.2"/>
	<text transform="matrix(1 0 0 1 14.479 16.6263)" class="st0 st3 st4">PHD</text>
	<path id="SVGID_x5F_3_x5F_" class="st5" d="M35.5,16.5c0-7.7-6.3-14-14-14s-14,6.3-14,14s6.3,14,14,14S35.5,24.2,35.5,16.5z"/>
</g>
</svg>
