<?xml version="1.0" encoding="utf-8"?>
<!-- Generator: Adobe Illustrator 23.0.3, SVG Export Plug-In . SVG Version: 6.00 Build 0)  -->
<svg version="1.1" id="Layer_1" xmlns="http://www.w3.org/2000/svg" xmlns:xlink="http://www.w3.org/1999/xlink" x="0px" y="0px"
	 viewBox="0 0 147 36" style="enable-background:new 0 0 147 36;" xml:space="preserve">
<style type="text/css">
	.st0{fill-rule:evenodd;clip-rule:evenodd;fill:url(#SVGID_1_);}
	.st1{fill:none;stroke:url(#SVGID_2_);stroke-width:4;}
	.st2{fill:none;stroke:url(#SVGID_3_);stroke-width:4;}
	.st3{fill:url(#SVGID_4_);}
	.st4{fill:url(#SVGID_5_);}
	.st5{fill:url(#SVGID_6_);}
	.st6{fill:url(#SVGID_7_);}
	.st7{fill:url(#SVGID_8_);}
	.st8{fill:url(#SVGID_9_);}
	.st9{fill:url(#SVGID_10_);}
	.st10{fill:#E62432;}
	.st11{fill:#02549F;}
</style>
<g>
	
		<linearGradient id="SVGID_1_" gradientUnits="userSpaceOnUse" x1="-564.0549" y1="-97.9679" x2="-562.9045" y2="-96.8152" gradientTransform="matrix(85 0 0 23 48018 2146.1218)">
		<stop  offset="0" style="stop-color:#E35C67"/>
		<stop  offset="1" style="stop-color:#A293FF"/>
	</linearGradient>
	<path class="st0" d="M71.6-89.7v-16.1h4.6l4.5,11.1l4.5-11.1h4.6v16.1h-3.9v-9.6l-3.6,9.6h-3.2l-3.6-9.7v9.7H71.6z M98.2-99.5
		c-1.3,0-2.3,0.8-2.5,2.2h4.9C100.6-98.7,99.5-99.5,98.2-99.5z M104.3-94c-0.6,2.5-2.9,4.4-6.1,4.4c-3.8,0-6.5-2.5-6.5-6.6
		s2.7-6.6,6.5-6.6c3.7,0,6.4,2.5,6.4,6.4c0,0.4,0,0.8-0.1,1.1h-8.9c0.1,1.7,1.2,2.4,2.4,2.4c1.1,0,1.7-0.5,2-1.2
		C100.1-94,104.3-94,104.3-94z M106.7-89.7v-16.9h3.9v16.9H106.7z M125.9-96.1c0,4.1-2.9,6.6-6.7,6.6s-6.6-2.5-6.6-6.6
		s2.9-6.6,6.6-6.6C123-102.7,125.9-100.2,125.9-96.1z M116.6-96.1c0,2.2,1.2,3.2,2.6,3.2s2.7-1,2.7-3.2s-1.3-3.2-2.7-3.2
		C117.8-99.3,116.6-98.3,116.6-96.1z M127.2-96.1c0-4,2.5-6.5,5.6-6.5c1.7,0,3.2,0.8,3.9,1.9v-5.9h3.9v16.9h-3.9v-1.8
		c-0.7,1.2-2.1,2-3.9,2C129.7-89.5,127.2-92.1,127.2-96.1L127.2-96.1z M136.8-96.1c0-2-1.3-3.2-2.8-3.2s-2.8,1.1-2.8,3.1
		s1.3,3.2,2.8,3.2S136.8-94.1,136.8-96.1z M149.4-94.5l2.9-8h4.2l-8,18.8h-4.2l2.9-6.5l-5.2-12.3h4.4L149.4-94.5L149.4-94.5z"/>
	
		<linearGradient id="SVGID_2_" gradientUnits="userSpaceOnUse" x1="-550.0798" y1="-102.4213" x2="-548.4807" y2="-102.7688" gradientTransform="matrix(28 0 0 29 15425 2876.8057)">
		<stop  offset="0" style="stop-color:#E35C67"/>
		<stop  offset="1" style="stop-color:#A293FF"/>
	</linearGradient>
	<ellipse class="st1" cx="39.6" cy="-97.2" rx="14" ry="14.5"/>
	
		<linearGradient id="SVGID_3_" gradientUnits="userSpaceOnUse" x1="-553.5597" y1="-95.727" x2="-552.4092" y2="-94.5743" gradientTransform="matrix(34.0001 0 0 20.9996 18856.0605 1900.8268)">
		<stop  offset="0" style="stop-color:#E35C67"/>
		<stop  offset="1" style="stop-color:#A293FF"/>
	</linearGradient>
	<path class="st2" d="M30.6-85.8c0.3-0.7,3.4-18.1,7.2-16.8c3.6,1.3-0.4,10.8,3.6,10.9s0.9-11.1,4.9-10.9
		c4.8,0.2,8.2,24.9,15.1,14.3c2.2-3.3,3-11.6,3.2-13.5c0.4-5.7-4.9-5.6-6-3.7c-0.8,1.4-1.6,7.3,5.5,7.3"/>
</g>
<g>
	
		<linearGradient id="SVGID_4_" gradientUnits="userSpaceOnUse" x1="70.5" y1="89.4" x2="89.3634" y2="89.4" gradientTransform="matrix(1 0 0 -1 0 37.276)">
		<stop  offset="0" style="stop-color:#E35C67"/>
		<stop  offset="1" style="stop-color:#A293FF"/>
	</linearGradient>
	<path class="st3" d="M77.4-49.1v8.1h-6.9v-22.2H80c2.4,0,4.2,0.3,5.4,0.8c1.2,0.5,2.2,1.4,2.9,2.5c0.7,1.1,1.1,2.4,1.1,3.8
		c0,2.1-0.7,3.8-2.2,5.1s-3.4,1.9-5.9,1.9H77.4z M77.3-53.8h2.3c2,0,3-0.7,3-2.2c0-1.4-0.9-2.1-2.8-2.1h-2.5V-53.8z"/>
	
		<linearGradient id="SVGID_5_" gradientUnits="userSpaceOnUse" x1="91.9" y1="89.4" x2="111.6244" y2="89.4" gradientTransform="matrix(1 0 0 -1 0 37.276)">
		<stop  offset="0" style="stop-color:#E35C67"/>
		<stop  offset="1" style="stop-color:#A293FF"/>
	</linearGradient>
	<path class="st4" d="M91.9-41v-22.2h8.6c3.7,0,6.5,1.1,8.4,3.3s2.8,4.8,2.8,7.7c0,3.3-1,6-3,8.1c-2,2.1-4.6,3.1-7.7,3.1H91.9z
		 M98.7-46.1h1.8c1.1,0,2.1-0.5,2.9-1.6c0.8-1.1,1.2-2.6,1.2-4.5c0-1.6-0.3-3-1-4.2c-0.7-1.2-1.7-1.8-3-1.8h-1.8v12.1H98.7z"/>
	
		<linearGradient id="SVGID_6_" gradientUnits="userSpaceOnUse" x1="114.5" y1="89.4" x2="133.3" y2="89.4" gradientTransform="matrix(1 0 0 -1 0 37.276)">
		<stop  offset="0" style="stop-color:#E35C67"/>
		<stop  offset="1" style="stop-color:#A293FF"/>
	</linearGradient>
	<path class="st5" d="M133.3-63.2V-41h-6.8v-8.6h-5.2v8.6h-6.8v-22.2h6.8v8.2h5.2v-8.2H133.3z"/>
	
		<linearGradient id="SVGID_7_" gradientUnits="userSpaceOnUse" x1="136.1726" y1="89.35" x2="155.5726" y2="89.35" gradientTransform="matrix(1 0 0 -1 0 37.276)">
		<stop  offset="0" style="stop-color:#E35C67"/>
		<stop  offset="1" style="stop-color:#A293FF"/>
	</linearGradient>
	<path class="st6" d="M149.4-49.5l6.2,0.4c-0.3,2.7-1.3,4.8-3,6.3s-3.8,2.2-6.3,2.2c-3,0-5.4-1-7.3-3c-1.9-2-2.8-4.7-2.8-8.3
		c0-3.5,0.9-6.3,2.6-8.4c1.8-2.1,4.2-3.2,7.3-3.2c2.9,0,5.2,0.8,6.8,2.4c1.6,1.6,2.5,3.8,2.7,6.5l-6.4,0.3c0-1.5-0.3-2.6-0.9-3.2
		c-0.6-0.7-1.2-1-2-1c-2.1,0-3.2,2.2-3.2,6.5c0,2.4,0.3,4.1,0.8,4.9c0.6,0.9,1.3,1.3,2.3,1.3C148.1-45.8,149.1-47,149.4-49.5z"/>
	
		<linearGradient id="SVGID_8_" gradientUnits="userSpaceOnUse" x1="157.1" y1="89.4" x2="178.2054" y2="89.4" gradientTransform="matrix(1 0 0 -1 0 37.276)">
		<stop  offset="0" style="stop-color:#E35C67"/>
		<stop  offset="1" style="stop-color:#A293FF"/>
	</linearGradient>
	<path class="st7" d="M167.7-40.7c-3.1,0-5.7-1-7.6-3.1c-2-2-3-4.8-3-8.3c0-3.3,0.9-6.1,2.8-8.2c1.9-2.2,4.5-3.2,7.8-3.2
		c3.1,0,5.6,1,7.5,3.1c1.9,2,2.9,4.8,2.9,8.2c0,3.5-1,6.3-2.9,8.5C173.3-41.7,170.8-40.7,167.7-40.7z M167.6-45.7
		c1.1,0,2-0.5,2.5-1.5s0.8-2.8,0.8-5.5c0-3.9-1-5.8-3.1-5.8c-2.2,0-3.3,2.2-3.3,6.6C164.4-47.8,165.5-45.7,167.6-45.7z"/>
	
		<linearGradient id="SVGID_9_" gradientUnits="userSpaceOnUse" x1="181.0647" y1="89.4" x2="187.8724" y2="89.4" gradientTransform="matrix(1 0 0 -1 0 37.276)">
		<stop  offset="0" style="stop-color:#E35C67"/>
		<stop  offset="1" style="stop-color:#A293FF"/>
	</linearGradient>
	<path class="st8" d="M187.9-63.2V-41h-6.8v-22.2H187.9z"/>
	
		<linearGradient id="SVGID_10_" gradientUnits="userSpaceOnUse" x1="191.7392" y1="89.4" x2="210.7001" y2="89.4" gradientTransform="matrix(1 0 0 -1 0 37.276)">
		<stop  offset="0" style="stop-color:#E35C67"/>
		<stop  offset="1" style="stop-color:#A293FF"/>
	</linearGradient>
	<path class="st9" d="M210.7-41h-5.5l-6.1-9.8c-0.8-1.3-1.6-2.8-2.4-4.6c0.4,1.4,0.5,2.6,0.5,3.6v10.7h-5.5v-22.1h6.4l5.2,8.1
		c1,1.6,1.8,3,2.3,4.3c-0.3-1.9-0.5-3.8-0.5-5.8v-6.6h5.5V-41H210.7z"/>
</g>
<g>
	<g>
		<path class="st10" d="M66.8,1.5H68c2.8,0.1,5.6,0.4,8.2,1.3c0,1.7,0,3.4,0,5.1c-2-1.8-4.6-2.7-7.2-3.1c-1.4-0.2-2.9-0.2-4.3,0.2
			C64,5.3,63.4,5.6,63,6.2c-0.5,0.7-0.4,1.6,0.2,2.2c0.6,0.6,1.4,0.8,2.1,1c2.8,0.7,5.8,0.6,8.5,1.8c1.4,0.6,2.6,1.6,3.1,3.1
			c0.5,1.4,0.5,3,0.1,4.5c-0.4,1.5-1.5,2.7-2.9,3.4c-1.8,1-4,1.3-6.1,1.4c-1.6,0-3.1,0-4.7-0.1c-2-0.2-4-0.4-5.8-1.2
			c0-1.6,0-3.1,0-4.7c2.4,1.6,5.2,2.6,8.1,2.8c1.4,0.1,2.7,0.1,4.1-0.3c0.7-0.2,1.5-0.6,1.9-1.2c0.5-0.8,0.4-1.9-0.2-2.5
			c-0.5-0.5-1.2-0.8-1.9-1c-1.4-0.4-2.8-0.6-4.3-0.8c-1.7-0.3-3.4-0.7-4.8-1.6c-1.2-0.7-2.1-1.7-2.5-3c-0.4-1.2-0.3-2.6,0.1-3.8
			c0.4-1.4,1.5-2.6,2.8-3.3C62.6,1.9,64.7,1.6,66.8,1.5z"/>
		<path class="st10" d="M93.1,1.5h0.6c2,0,4.1,0.2,6.1,0.7c0,1.8,0,3.5,0,5.3c-1.2-1.2-2.7-2.2-4.5-2.6c-1.8-0.4-3.8-0.2-5.5,0.6
			c-1.4,0.6-2.6,1.7-3.3,3c-0.9,1.5-1.2,3.4-1,5.1c0.2,1.6,0.8,3.1,1.9,4.3c1,1.2,2.5,2,4,2.3c1.7,0.4,3.6,0.3,5.2-0.3
			c1.2-0.5,2.3-1.3,3.2-2.2c0,1.8,0,3.5,0,5.3c-1,0.3-1.9,0.4-2.9,0.6c-3.5,0.4-7.1,0.3-10.4-0.9c-2.4-0.9-4.6-2.4-5.9-4.7
			c-1-1.6-1.4-3.4-1.4-5.2c0-1.7,0.4-3.5,1.2-5c0.8-1.5,2.1-2.8,3.6-3.7C86.7,2.2,89.9,1.6,93.1,1.5z"/>
		<path class="st10" d="M114.1,1.5h1c1.1,0,2.2,0.1,3.3,0.4c2.8,0.6,5.6,1.9,7.4,4.2c2.1,2.5,2.8,6.1,1.9,9.3
			c-0.5,1.8-1.5,3.4-2.8,4.7c-2.1,2-5,3.1-7.9,3.4c-2.7,0.3-5.6,0.1-8.2-0.8c-2.4-0.8-4.6-2.4-6-4.5c-2.1-3.1-2.2-7.4-0.4-10.7
			c0.8-1.4,1.9-2.6,3.3-3.6C108.2,2.3,111.2,1.6,114.1,1.5 M113.6,4.8c-2,0.3-3.7,1.5-4.8,3.1c-1.6,2.6-1.7,5.9-0.3,8.6
			c0.6,1.2,1.6,2.3,2.8,3c1.7,0.9,3.7,1.1,5.5,0.6c1.6-0.5,2.9-1.6,3.8-3c1.3-2.2,1.6-4.9,0.9-7.3c-0.5-1.6-1.5-3.1-2.9-4
			C117,4.9,115.3,4.6,113.6,4.8z"/>
		<path class="st10" d="M11.8,1.9c7.9,0,15.9,0,23.8,0c0,1.7,0,3.5,0,5.2c-0.9-0.7-1.9-1.1-3-1.4c-2-0.5-4-0.6-6.1-0.6
			c0,4.7,0,9.5,0,14.2c0,0.8,0,1.7,0.2,2.4c0.1,0.5,0.4,0.9,0.7,1.4c-2.5,0-5.1,0-7.6,0c0.4-0.5,0.7-1,0.8-1.6
			c0.2-0.8,0.1-1.6,0.2-2.4c0-4.7,0-9.3,0-14c-1.9,0-3.9,0.1-5.8,0.6c-1.2,0.3-2.4,0.7-3.3,1.4C11.8,5.4,11.8,3.7,11.8,1.9z"/>
		<path class="st10" d="M37.8,2c5.5,0,11,0,16.5,0c0,1.7,0,3.5,0,5.2c-0.8-0.7-1.8-1-2.8-1.3c-1.4-0.4-2.8-0.6-4.2-0.7
			c-1-0.1-2.1,0-3.1,0c0,1.9,0,3.8,0,5.6c2.1,0,4.3,0.1,6.3-0.6c0,1.4,0,2.8,0,4.2c-2-0.7-4.2-0.5-6.3-0.6c0,2,0,4.1,0,6.1
			c0.9,0,1.8,0,2.7,0c1.8,0,3.6-0.2,5.4-0.7c1-0.3,2.1-0.6,2.9-1.3c0,1.7,0,3.5,0,5.2c-5.8,0-11.6,0-17.3,0c0.3-0.4,0.6-0.8,0.8-1.3
			c0.2-0.8,0.2-1.6,0.2-2.4c0-4.6,0-9.2,0-13.8c0-0.8,0-1.6-0.2-2.3C38.4,2.8,38.1,2.3,37.8,2z"/>
	</g>
	<g>
		<path class="st11" d="M14.6,31.4c1.3-1.5,3.1-2.5,5.1-2.5c4.5,0,8.9,0,13.4,0c0.4,0,0.8,0,1.1,0.1c-1.6,0.8-2.9,2-4.1,3.2
			c-0.8,0.8-1.7,1.6-2.8,2.1c-0.8,0.4-1.7,0.5-2.6,0.6H10.8c0.1-0.3,0.5-0.5,0.8-0.7C12.7,33.4,13.7,32.4,14.6,31.4z"/>
		<path class="st11" d="M38.6,31c1.2-1.2,2.9-2,4.6-2c4.7,0,9.4,0,14,0c0.2,0,0.4,0,0.5,0.1c-1.5,0.7-2.7,1.8-3.8,2.9
			c-0.9,0.9-1.9,1.8-3,2.3c-0.8,0.4-1.8,0.5-2.7,0.6H34.3c0.1-0.4,0.6-0.5,0.8-0.7C36.3,33.2,37.5,32.1,38.6,31z"/>
		<path class="st11" d="M62.4,30.6c1.2-1,2.7-1.7,4.3-1.7c4.8,0,9.6,0,14.4,0c-0.1,0.1-0.2,0.2-0.3,0.2c-1.1,0.6-2.1,1.4-3,2.3
			c-1.1,1-2.1,2.1-3.4,2.8c-0.9,0.4-1.8,0.5-2.7,0.6H57.7c0.1-0.3,0.5-0.4,0.7-0.6c1-0.7,1.8-1.5,2.7-2.3
			C61.5,31.5,61.9,31,62.4,30.6z"/>
		<path class="st11" d="M85.5,30.9c1.2-1.2,2.9-2,4.7-2c4.8,0,9.6,0,14.4,0c-0.1,0.1-0.2,0.2-0.3,0.3c-1.1,0.6-2.1,1.4-3,2.3
			c-1,1-2,2-3.3,2.7c-0.9,0.5-1.9,0.6-2.9,0.7H81.1c0-0.1,0.1-0.2,0.2-0.3C82.9,33.6,84.2,32.2,85.5,30.9z"/>
		<path class="st11" d="M109.3,30.6c1.2-1,2.7-1.7,4.3-1.7c4.8,0,9.6,0,14.4,0c-0.2,0.3-0.6,0.4-0.8,0.5c-0.9,0.6-1.8,1.3-2.6,2.1
			c-1,0.9-1.9,1.9-3.1,2.5c-1,0.5-2.1,0.7-3.1,0.8h-13.8c0.1-0.3,0.4-0.4,0.7-0.6c1-0.7,1.8-1.5,2.7-2.3
			C108.4,31.5,108.8,31,109.3,30.6z"/>
	</g>
</g>
</svg>
