<?xml version="1.0" encoding="utf-8"?>
<!-- Generator: Adobe Illustrator 23.0.3, SVG Export Plug-In . SVG Version: 6.00 Build 0)  -->
<svg version="1.1" id="Layer_1" xmlns="http://www.w3.org/2000/svg" xmlns:xlink="http://www.w3.org/1999/xlink" x="0px" y="0px"
	 viewBox="0 0 150 150" style="enable-background:new 0 0 150 150;" xml:space="preserve">
<style type="text/css">
	.st0{fill:url(#SVGID_1_);}
	.st1{fill:url(#SVGID_2_);}
	.st2{fill:url(#SVGID_3_);}
	.st3{fill:url(#SVGID_4_);}
	.st4{fill:url(#SVGID_5_);}
	.st5{fill:url(#SVGID_6_);}
	.st6{fill:url(#SVGID_7_);}
	.st7{fill:#1F6030;}
	.st8{fill:#3A73B9;}
	.st9{fill:#76D5A9;}
	.st10{enable-background:new    ;}
	.st11{fill:none;}
	.st12{fill:#ED1E29;}
	.st13{fill:#E62432;}
	.st14{fill:#02549F;}
</style>
<g>
	<g>
		
			<linearGradient id="SVGID_1_" gradientUnits="userSpaceOnUse" x1="-230.4108" y1="-645.944" x2="-221.9108" y2="-645.944" gradientTransform="matrix(1 0 0 -1 0 -628.144)">
			<stop  offset="0" style="stop-color:#E35C67"/>
			<stop  offset="1" style="stop-color:#A293FF"/>
		</linearGradient>
		<path class="st0" d="M-227.3,19.1v3.7h-3.1v-10h4.3c1.1,0,1.9,0.1,2.4,0.4c0.5,0.2,1,0.6,1.3,1.1s0.5,1.1,0.5,1.7
			c0,0.9-0.3,1.7-1,2.3c-0.7,0.6-1.5,0.9-2.7,0.9L-227.3,19.1L-227.3,19.1z M-227.3,16.9h1c0.9,0,1.4-0.3,1.4-1
			c0-0.6-0.4-0.9-1.3-0.9h-1.1C-227.3,15-227.3,16.9-227.3,16.9z"/>
		
			<linearGradient id="SVGID_2_" gradientUnits="userSpaceOnUse" x1="-220.7635" y1="-645.894" x2="-211.8715" y2="-645.894" gradientTransform="matrix(1 0 0 -1 0 -628.144)">
			<stop  offset="0" style="stop-color:#E35C67"/>
			<stop  offset="1" style="stop-color:#A293FF"/>
		</linearGradient>
		<path class="st1" d="M-220.8,22.7v-10h3.9c1.7,0,2.9,0.5,3.8,1.5s1.3,2.2,1.3,3.5c0,1.5-0.5,2.7-1.4,3.7s-2.1,1.4-3.5,1.4
			L-220.8,22.7L-220.8,22.7z M-217.7,20.4h0.8c0.5,0,0.9-0.2,1.3-0.7c0.4-0.5,0.5-1.2,0.5-2c0-0.7-0.1-1.4-0.5-1.9
			c-0.2-0.6-0.6-0.8-1.2-0.8h-0.8L-217.7,20.4L-217.7,20.4z"/>
		
			<linearGradient id="SVGID_3_" gradientUnits="userSpaceOnUse" x1="-210.5752" y1="-645.844" x2="-202.0999" y2="-645.844" gradientTransform="matrix(1 0 0 -1 0 -628.144)">
			<stop  offset="0" style="stop-color:#E35C67"/>
			<stop  offset="1" style="stop-color:#A293FF"/>
		</linearGradient>
		<path class="st2" d="M-202.1,12.7v10h-3.1v-3.9h-2.3v3.9h-3.1v-10h3.1v3.7h2.3v-3.7H-202.1z"/>
		
			<linearGradient id="SVGID_4_" gradientUnits="userSpaceOnUse" x1="-200.8" y1="-645.894" x2="-192.0543" y2="-645.894" gradientTransform="matrix(1 0 0 -1 0 -628.144)">
			<stop  offset="0" style="stop-color:#E35C67"/>
			<stop  offset="1" style="stop-color:#A293FF"/>
		</linearGradient>
		<path class="st3" d="M-194.8,18.9l2.8,0.2c-0.1,1.2-0.6,2.2-1.4,2.8c-0.8,0.7-1.7,1-2.8,1c-1.4,0-2.4-0.5-3.3-1.4
			s-1.3-2.1-1.3-3.7s0.4-2.8,1.2-3.8c0.8-0.9,1.9-1.4,3.3-1.4c1.3,0,2.3,0.4,3.1,1.1c0.8,0.7,1.1,1.7,1.2,2.9l-2.9,0.1
			c0-0.7-0.1-1.2-0.4-1.4c-0.3-0.3-0.5-0.5-0.9-0.5c-0.9,0-1.4,1-1.4,2.9c0,1.1,0.1,1.8,0.4,2.2c0.3,0.4,0.6,0.6,1,0.6
			C-195.4,20.6-195,20-194.8,18.9z"/>
		
			<linearGradient id="SVGID_5_" gradientUnits="userSpaceOnUse" x1="-191.3616" y1="-645.944" x2="-181.8471" y2="-645.944" gradientTransform="matrix(1 0 0 -1 0 -628.144)">
			<stop  offset="0" style="stop-color:#E35C67"/>
			<stop  offset="1" style="stop-color:#A293FF"/>
		</linearGradient>
		<path class="st4" d="M-186.6,22.9c-1.4,0-2.6-0.5-3.4-1.4c-0.9-0.9-1.4-2.2-1.4-3.7s0.4-2.7,1.3-3.7c0.9-1,2-1.4,3.5-1.4
			c1.4,0,2.5,0.5,3.4,1.4s1.3,2.2,1.3,3.7c0,1.6-0.5,2.8-1.3,3.8C-184.1,22.4-185.2,22.9-186.6,22.9z M-186.6,20.6
			c0.5,0,0.9-0.2,1.1-0.7s0.4-1.3,0.4-2.5c0-1.8-0.5-2.6-1.4-2.6c-1,0-1.5,1-1.5,3C-188.1,19.7-187.6,20.6-186.6,20.6z"/>
		
			<linearGradient id="SVGID_6_" gradientUnits="userSpaceOnUse" x1="-180.5671" y1="-645.844" x2="-177.4981" y2="-645.844" gradientTransform="matrix(1 0 0 -1 0 -628.144)">
			<stop  offset="0" style="stop-color:#E35C67"/>
			<stop  offset="1" style="stop-color:#A293FF"/>
		</linearGradient>
		<path class="st5" d="M-177.5,12.7v10h-3.1v-10H-177.5z"/>
		
			<linearGradient id="SVGID_7_" gradientUnits="userSpaceOnUse" x1="-175.7549" y1="-645.794" x2="-167.2072" y2="-645.794" gradientTransform="matrix(1 0 0 -1 0 -628.144)">
			<stop  offset="0" style="stop-color:#E35C67"/>
			<stop  offset="1" style="stop-color:#A293FF"/>
		</linearGradient>
		<path class="st6" d="M-167.2,22.7h-2.5l-2.7-4.4c-0.4-0.6-0.7-1.3-1.1-2.1c0.2,0.6,0.2,1.2,0.2,1.6v4.8h-2.5v-10h2.9l2.3,3.7
			c0.5,0.7,0.8,1.4,1,1.9c-0.1-0.9-0.2-1.7-0.2-2.6v-3h2.5L-167.2,22.7L-167.2,22.7z"/>
	</g>
	<g>
		<g>
			<path class="st7" d="M-187,1.5c-3.4,2.5-7.5,3.8-11.6,3.7c-5.4-0.3-10.7-3.1-14.1-7.5c-2.8-3.7-4.3-8.2-4-12.8
				c0.4-4.7,2.8-9.1,6.6-11.6c-1.6,1.6-2.9,3.5-4,5.4c2.5,1,5.4-0.1,7.4-2.4c1.8-2.2,2.4-5,2.5-7.7c-2.4-0.1-5.3,0.4-7.2,2.1
				c-1.5,1.3-2.2,2.8-3.1,4.4c-1.3,2.4-2.6,4.9-3.5,7.5c-1.9,6.2,0.4,13.1,5.1,17.8c0.9,0.9,1.6,1.5,2.4,2.1
				c0.9,0.6,1.8,1.2,2.6,1.6c1,0.4,1.8,0.9,2.9,1.2c1,0.3,2.1,0.4,3.1,0.6c1.2,0.1,2.1,0.1,3.1,0.1c0.4,0,1,0,1.5-0.1
				c1-0.1,1.8-0.3,2.8-0.4c1-0.3,1.8-0.6,2.8-1s1.8-1,2.5-1.5c0.9-0.4,1.6-1.2,2.4-1.8c0.9-0.6,1.5-1.5,1.8-2.2
				c0.1-0.1,0.1-0.3,0.3-0.3C-184.9-0.4-185.9,0.6-187,1.5z"/>
		</g>
		<g>
			<path class="st8" d="M-180.8-21.3c-0.6-2.1-2.2-4-4.3-4.7c-1.2,2.2-1.8,4.9-1.6,7.4c0.1,2.5,2.1,5,4.7,5.4c0-1.6,0.1-3.1,0.1-4.9
				c1.3,4.7,0.1,9.6-2.6,13.2c-2.8,3.7-7.4,6.2-11.9,6.8c2.5-4.9,6.2-9,10.6-11.9c-3.4,0.6-6.3,2.1-9.1,4c-2.6,1.8-5.3,4.3-7.8,6.5
				c-0.1,0.1-0.4,0.3-0.6,0.3c-0.1,0-0.3,0-0.4-0.1c-1.2-0.4-2.1-1-2.9-1.6c5.4-4.9,12.5-8.2,19.6-10c-7.8,1-15.6,3.7-22.1,7.9
				c-0.9-0.9-1.6-1.8-2.2-2.6c6-4,13.1-5.6,20.3-6.5c-0.1,0-0.4,0-0.6-0.1c-0.1,0-0.4,0-0.6-0.1c-0.1,0-0.4,0-0.6,0
				c-0.1,0-0.4,0-0.6,0c-0.1,0-0.4,0-0.6,0c-0.1,0-0.4,0-0.6,0c-0.1,0-0.4,0-0.6,0c-0.1,0-0.4,0-0.6,0c-0.1,0-0.4,0-0.6,0
				c-0.1,0-0.4,0-0.6,0c-0.1,0-0.4,0-0.6,0c-0.1,0-0.4,0-0.6,0c-0.1,0-0.4,0-0.6,0.1c-0.1,0-0.4,0-0.6,0.1c-0.1,0-0.4,0-0.6,0.1
				c-0.1,0-0.4,0.1-0.6,0.1c-0.1,0-0.4,0.1-0.6,0.1c-0.1,0-0.4,0.1-0.6,0.1c-0.2,0-0.4,0.1-0.6,0.1c-0.1,0-0.4,0.1-0.6,0.1
				c-0.1,0-0.4,0.1-0.6,0.1c-0.1,0-0.4,0.1-0.6,0.1c-0.1,0-0.4,0.1-0.6,0.1c-0.1,0-0.4,0.1-0.6,0.1c-0.1,0-0.4,0.1-0.6,0.1
				c-0.1,0-0.4,0.1-0.6,0.1c-0.1,0-0.4,0.1-0.6,0.1c-0.1,0.1-0.4,0.1-0.6,0.3c-0.1,0.1-0.4,0.1-0.6,0.3c-2.4,0.7-2.6,0.7-2.9,0.9
				c-0.1,0.1-0.4,0.1-0.6,0.3c-0.1,0.1-0.4,0.1-0.6,0.3c-0.2,0.2-0.4,0.1-0.6,0.3s-0.4,0.1-0.6,0.3c-0.2,0.2-0.4,0.1-0.6,0.3
				c-0.1,0-0.1,0.1-0.1,0.3s0,0.1,0,0.1c0,0.1,0,0.1,0.1,0.3c0,0.1,0.1,0.3,0.3,0.4c0.2,0.1,0.1,0.3,0.3,0.4
				c0.1,0.1,0.1,0.3,0.3,0.4c0.1,0.1,0.1,0.3,0.3,0.4c0.1,0.1,0.1,0.3,0.3,0.4c0.1,0.1,0.1,0.3,0.3,0.4c0.1,0.1,0.1,0.3,0.3,0.4
				c0.2,0.1,0.1,0.3,0.3,0.4c0.1,0.1,0.1,0.3,0.3,0.4c0.1,0.1,0.3,0.3,0.3,0.4c0.1,0.1,0.3,0.3,0.3,0.4c0.1,0.1,0.3,0.3,0.4,0.3
				c0.1,0.1,0.3,0.3,0.4,0.3c0.1,0.1,0.3,0.3,0.4,0.3c0.1,0.1,0.3,0.3,0.4,0.3c0.1,0.1,0.3,0.1,0.4,0.3c0.1,0.1,0.3,0.1,0.4,0.3
				c0.1,0.1,0.3,0.1,0.4,0.3c0.1,0.1,0.3,0.1,0.4,0.3c0.1,0.1,0.3,0.1,0.4,0.3c0.1,0.1,0.3,0.1,0.4,0.3c0.1,0.1,0.3,0.1,0.4,0.3
				c0.1,0.1,0.3,0.1,0.4,0.3c0,0,0.1,0,0.1,0.1c4.1,1.8,9.1,1.8,13.2,0.3c4.9-1.8,8.7-5.6,10.2-10.4c0.6-2.2,1-4.7,1.2-6.8
				c0.1-2.2,0.1-4.7-0.4-6.8C-180.8-21.3-180.8-21.3-180.8-21.3z"/>
		</g>
		<g>
			<path class="st9" d="M-199.8,5.4"/>
		</g>
		<g class="st10">
			<path class="st7" d="M-207-20.2c0.7,0,1.3,0.3,1.9,0.4c0.6,0.3,1,0.6,1.5,1c0.4,0.4,0.6,1,0.6,1.6s-0.1,1.2-0.4,1.6
				c-0.3,0.4-0.7,0.7-1.3,1c-0.1,0-0.3,0-0.6,0c-0.4,0-0.7-0.1-1.2-0.3c-0.3-0.1-0.6-0.3-0.6-0.4c0,0.1,0,0.4-0.1,0.9
				c0,0.4-0.1,0.9-0.3,1.2c-0.1,0.3-0.3,0.6-0.4,0.6s-0.4-0.1-0.4-0.4c-0.3,0-0.4-0.4-0.4-0.7s-0.1-0.6-0.1-0.9
				c-0.1-1.3-0.1-2.6-0.1-3.8l-0.3-0.1c-0.1-0.1-0.4-0.3-0.6-0.6c-0.2-0.3-0.1-0.6-0.1-0.9v-0.1c0-0.4,0.1-0.6,0.3-0.6
				c0.1,0,0.3,0,0.4,0.1c0.3,0.1,0.4,0.1,0.4,0.1c0.1-0.3,0.4-0.4,0.7-0.4C-207.6-21.1-207.3-20.8-207-20.2z M-207.1-17.7
				c0,0.3,0,0.6,0,1.2c0,0.4,0,0.9,0,1.3c0-0.1,0.1-0.3,0.3-0.3c0.1,0,0.3,0,0.4,0c0.3,0,0.4-0.1,0.6-0.3c0.1-0.1,0.1-0.3,0.1-0.6
				s-0.1-0.7-0.4-0.9C-206.4-17.5-206.7-17.6-207.1-17.7z"/>
			<path class="st7" d="M-197.4-15.2c0,0.3-0.1,0.4-0.3,0.7c-0.1,0.1-0.3,0.3-0.6,0.3l0,0c-0.1,0-0.4-0.1-0.6-0.3
				c-0.1-0.1-0.3-0.4-0.3-0.7c0,0.4-0.1,0.9-0.3,1.5c-0.1,0.6-0.1,0.9-0.3,1c0,0.1-0.1,0.1-0.1,0.3c0,0,0,0.1-0.1,0.1
				s-0.1,0-0.3-0.1c-0.1-0.1-0.1-0.1-0.1-0.3c-0.1-0.4-0.3-1-0.4-1.8c-0.1-0.7-0.3-1.5-0.3-2.4c0-0.7-0.1-1.3-0.1-1.8
				c0-0.1,0-0.3,0-0.4c0-0.6,0.1-1,0.3-1.5c0.2-0.5,0.4-0.6,0.9-0.6c0.4,0,0.7,0.1,1,0.6c0.1,0.4,0.3,0.9,0.3,1.2
				c0,0.6,0,1.2-0.1,1.9c-0.1,0.7-0.1,1.3-0.1,1.8c0-0.3,0.1-0.4,0.3-0.6c0.1-0.1,0.3-0.3,0.6-0.3c0.1,0,0.4,0.1,0.6,0.3
				c0.1,0.1,0.3,0.4,0.3,0.6c-0.1-1.6-0.3-2.8-0.3-3.5c0-0.4,0.1-0.9,0.3-1.3c0.1-0.4,0.4-0.6,1-0.6l0,0c0.4,0,0.7,0.1,0.9,0.6
				c0.1,0.3,0.3,0.9,0.3,1.3c0,0.1,0,0.3,0,0.4c0,0.9-0.1,1.8-0.3,3.1c-0.1,1.5-0.4,2.4-0.6,2.9c-0.1,0.3-0.3,0.4-0.4,0.4
				c-0.1,0-0.3-0.1-0.4-0.4C-197.1-13.2-197.3-14.1-197.4-15.2z"/>
			<path class="st7" d="M-193.2-20.5c0-0.1,0.1-0.3,0.3-0.3c0.1-0.1,0.3-0.1,0.4-0.1l0,0c0.3,0,0.6,0.1,0.7,0.3
				c0.1,0.1,0.1,0.4,0.3,0.7c0,0,0.1,0,0.4,0.1s0.6,0.1,0.9,0.3c0.3,0.2,0.6,0.4,0.9,0.7s0.6,0.7,0.9,1.2c0.1,0.4,0.3,0.9,0.3,1.3
				c0,0.4,0,0.9-0.1,1.3c-0.1,0.4-0.3,0.9-0.6,1.2c-0.6,1-1.6,1.5-3.1,1.5c-0.3,0-0.4,0-0.6,0c-0.4,0-1-0.3-1.5-0.6
				c-0.4-0.4-0.7-0.7-0.7-0.9l0,0c0-0.1,0-0.1,0.1-0.3c0-0.1,0.1-0.1,0.3-0.1l0,0c0.1,0,0.4,0,0.7,0.1s0.4,0.3,0.6,0.3
				c0,0,0,0,0-0.1V-14v-0.1c0-0.3,0-0.7-0.1-1.2c0-0.4-0.1-0.9-0.1-1.5c0-0.4,0-1,0-1.5c0,0-0.1-0.1-0.3-0.3
				c-0.1-0.1-0.3-0.3-0.4-0.6c-0.1-0.1-0.1-0.4-0.1-0.7c0-0.1,0-0.1,0-0.3c0-0.3,0.3-0.4,0.6-0.4C-193.6-20.8-193.4-20.7-193.2-20.5
				z M-191.1-17.5c-0.3-0.1-0.6-0.3-0.7-0.3c0,0,0,0.3-0.1,0.7c0,0.4-0.1,1-0.1,1.5c0,0.4-0.1,0.9-0.3,1.3c0,0.1-0.1,0.3-0.1,0.4
				c0,0-0.1,0.1-0.3,0.1c0.1,0,0.3,0,0.6,0.1c0.6,0,1-0.3,1.5-0.7c0.4-0.4,0.6-0.9,0.6-1.3l0,0c0-0.4-0.1-0.7-0.3-1
				C-190.5-17-190.8-17.3-191.1-17.5z"/>
		</g>
		<g id="SVGID_x5F_3_x5F_">
			<path class="st11" d="M-179.6-12.6c0-10.9-9-19.9-19.9-19.9c-10.7,0.1-19.7,9-19.7,19.9s9,19.9,19.9,19.9S-179.6-1.7-179.6-12.6z
				"/>
		</g>
	</g>
	<g>
		<g>
			<path class="st12" d="M-209.9,28.5v-0.2c0-0.6,0.2-1.3,0.8-1.7c0.3-0.3,0.6-0.4,0.9-0.4c0.3,0,0.6,0.1,0.7,0.3
				c0.1,0.1,0.1,0.2,0.1,0.3c0,0.1-0.1,0.2-0.2,0.3c-0.1,0.1-0.1,0.1-0.2,0s-0.4-0.4-0.7-0.4c-0.6,0-0.6,0.9-0.6,1.5v0.4h0.9
				c0.1,0.1,0,0.3-0.1,0.4h-0.9v2.5c0,0.6,0.1,0.6,0.7,0.7v0.2h-2v-0.2c0.6-0.1,0.6-0.1,0.6-0.6V29h-0.6l0,0l0.2-0.3h0.4
				L-209.9,28.5L-209.9,28.5z"/>
			<path class="st12" d="M-206,28.5c1.1,0,1.9,0.8,1.9,1.9c0,1.4-1,2.1-1.9,2.1c-1.2,0-1.9-0.9-1.9-1.9
				C-208,29.1-206.9,28.5-206,28.5z M-206.2,28.7c-0.5,0-1,0.5-1,1.5c0,1.1,0.5,1.9,1.2,1.9c0.5,0,1-0.4,1-1.6
				C-205,29.5-205.4,28.7-206.2,28.7z"/>
			<path class="st12" d="M-201.6,32.3h-2v-0.2c0.6-0.1,0.6-0.1,0.6-0.6v-1.8c0-0.6,0-0.6-0.5-0.6v-0.2c0.4-0.1,0.8-0.1,1.2-0.4
				c0,0.3,0,0.6,0,0.9c0.3-0.4,0.6-0.9,1.1-0.9c0.3,0,0.5,0.2,0.5,0.4s-0.1,0.4-0.3,0.5c-0.1,0.1-0.1,0.1-0.2,0
				c-0.1-0.1-0.2-0.2-0.4-0.2s-0.5,0.3-0.7,0.7v1.6c0,0.6,0.1,0.6,0.7,0.6C-201.6,32.2-201.6,32.3-201.6,32.3z"/>
			<path class="st12" d="M-193.7,28.1c-0.1-0.3-0.2-0.6-0.3-0.7c-0.1-0.2-0.2-0.3-0.7-0.3h-0.9v4.1c0,0.6,0.1,0.8,0.9,0.8v0.2h-2.5
				V32c0.8-0.1,0.9-0.1,0.9-0.8v-4.1h-0.8c-0.5,0-0.6,0.1-0.8,0.3c-0.1,0.1-0.1,0.4-0.3,0.7h-0.3c0.1-0.5,0.1-1.1,0.1-1.6h0.2
				c0.1,0.2,0.2,0.2,0.4,0.2h3.4c0.2,0,0.3,0,0.4-0.2h0.2C-193.7,27-193.7,27.5-193.7,28.1L-193.7,28.1z"/>
			<path class="st12" d="M-189.8,31.6c-0.6,0.7-1.1,0.9-1.4,0.9c-1.1,0-1.7-0.9-1.7-1.9c0-0.6,0.2-1.1,0.6-1.5
				c0.4-0.4,0.9-0.6,1.3-0.6c0.7,0,1.3,0.6,1.3,1.4c0,0.1,0,0.2-0.1,0.3c-0.1,0-1.3,0.1-2.3,0.1c0,1.1,0.6,1.6,1.3,1.6
				C-190.4,31.9-190.2,31.8-189.8,31.6L-189.8,31.6z M-191.3,28.7c-0.4,0-0.8,0.4-0.9,1.1c0.5,0,0.9,0,1.5,0c0.1,0,0.2-0.1,0.2-0.1
				C-190.5,29.2-190.8,28.7-191.3,28.7z"/>
			<path class="st12" d="M-187,29.6c-0.1-0.5-0.4-0.9-0.9-0.9c-0.3,0-0.5,0.2-0.5,0.6s0.2,0.6,0.7,0.8c0.7,0.4,1.1,0.6,1.1,1.1
				c0,0.8-0.7,1.2-1.4,1.2c-0.4,0-0.9-0.1-1-0.2c-0.1-0.2-0.1-0.7-0.1-1l0.2-0.1c0.1,0.6,0.4,1,1.1,1c0.4,0,0.6-0.2,0.6-0.6
				s-0.2-0.6-0.7-0.8c-0.6-0.3-1.1-0.6-1.1-1.2s0.5-1.1,1.4-1.1c0.4,0,0.6,0.1,0.9,0.1c0,0.2,0.1,0.7,0.1,0.9h-0.4V29.6z"/>
			<path class="st12" d="M-182.8,31.5c-0.4,0.5-0.9,0.9-1.5,0.9c-1.1,0-1.7-0.9-1.7-1.8c0-0.6,0.3-1.2,0.9-1.7
				c0.4-0.4,1-0.5,1.3-0.5c0.4,0,0.6,0.1,0.8,0.2c0.1,0.1,0.1,0.1,0.1,0.2c0,0.2-0.2,0.4-0.3,0.4c-0.1,0-0.1,0-0.1-0.1
				c-0.3-0.2-0.6-0.4-0.9-0.4c-0.6,0-1.1,0.5-1.1,1.4c0,1.2,0.8,1.6,1.3,1.6c0.4,0,0.6-0.1,1.1-0.5L-182.8,31.5z"/>
			<path class="st12" d="M-180.4,28.5c1.1,0,1.9,0.8,1.9,1.9c0,1.4-1,2.1-1.9,2.1c-1.2,0-1.9-0.9-1.9-1.9
				C-182.3,29.1-181.2,28.5-180.4,28.5z M-180.5,28.7c-0.5,0-1,0.5-1,1.5c0,1.1,0.5,1.9,1.2,1.9c0.5,0,1-0.4,1-1.6
				C-179.4,29.5-179.8,28.7-180.5,28.7z"/>
		</g>
	</g>
</g>
<g>
	<g>
		<path class="st13" d="M72.3,58.3h1.2c2.8,0.1,5.6,0.4,8.2,1.3c0,1.7,0,3.4,0,5.1c-2-1.8-4.6-2.7-7.2-3.1c-1.4-0.2-2.9-0.2-4.3,0.2
			c-0.6,0.2-1.3,0.5-1.7,1.1c-0.5,0.7-0.4,1.6,0.2,2.2c0.6,0.6,1.4,0.8,2.1,1c2.8,0.7,5.8,0.6,8.5,1.8c1.4,0.6,2.6,1.6,3.1,3.1
			c0.5,1.4,0.5,3,0.1,4.5c-0.4,1.5-1.5,2.7-2.9,3.4c-1.8,1-4,1.3-6.1,1.4c-1.6,0-3.1,0-4.7-0.1c-2-0.2-4-0.4-5.8-1.2
			c0-1.6,0-3.1,0-4.7c2.4,1.6,5.2,2.6,8.1,2.8c1.4,0.1,2.7,0.1,4.1-0.3c0.7-0.2,1.5-0.6,1.9-1.2c0.5-0.8,0.4-1.9-0.2-2.5
			c-0.5-0.5-1.2-0.8-1.9-1c-1.4-0.4-2.8-0.6-4.3-0.8c-1.7-0.3-3.4-0.7-4.8-1.6c-1.2-0.7-2.1-1.7-2.5-3c-0.4-1.2-0.3-2.6,0.1-3.8
			c0.4-1.4,1.5-2.6,2.8-3.3C68.1,58.7,70.2,58.4,72.3,58.3z"/>
		<path class="st13" d="M98.6,58.3h0.6c2,0,4.1,0.2,6.1,0.7c0,1.8,0,3.5,0,5.3c-1.2-1.2-2.7-2.2-4.5-2.6c-1.8-0.4-3.8-0.2-5.5,0.6
			c-1.4,0.6-2.6,1.7-3.3,3c-0.9,1.5-1.2,3.4-1,5.1c0.2,1.6,0.8,3.1,1.9,4.3c1,1.2,2.5,2,4,2.3c1.7,0.4,3.6,0.3,5.2-0.3
			c1.2-0.5,2.3-1.3,3.2-2.2c0,1.8,0,3.5,0,5.3c-1,0.3-1.9,0.4-2.9,0.6c-3.5,0.4-7.1,0.3-10.4-0.9c-2.4-0.9-4.6-2.4-6-4.7
			c-1-1.6-1.4-3.4-1.4-5.2c0-1.7,0.4-3.5,1.2-5c0.8-1.5,2.1-2.8,3.6-3.7C92.2,59,95.4,58.4,98.6,58.3z"/>
		<path class="st13" d="M119.7,58.3h1c1.1,0,2.2,0.1,3.3,0.4c2.8,0.6,5.6,1.9,7.4,4.2c2.1,2.5,2.8,6.1,1.9,9.3
			c-0.5,1.8-1.5,3.4-2.8,4.7c-2.1,2-5,3.1-7.9,3.4c-2.7,0.3-5.6,0.1-8.2-0.8c-2.4-0.8-4.6-2.4-6-4.5c-2.1-3.1-2.2-7.4-0.4-10.7
			c0.8-1.4,1.9-2.6,3.3-3.6C113.7,59.1,116.7,58.4,119.7,58.3 M119.1,61.6c-2,0.3-3.7,1.5-4.8,3.1c-1.6,2.6-1.7,5.9-0.3,8.6
			c0.6,1.2,1.6,2.3,2.8,3c1.7,0.9,3.7,1.1,5.5,0.6c1.6-0.5,2.9-1.6,3.8-3c1.3-2.2,1.6-4.9,0.9-7.3c-0.5-1.6-1.5-3.1-2.9-4
			C122.6,61.7,120.8,61.4,119.1,61.6z"/>
		<path class="st13" d="M17.3,58.8c7.9,0,15.9,0,23.8,0c0,1.7,0,3.5,0,5.2c-0.9-0.7-1.9-1.1-3-1.4c-2-0.5-4-0.6-6.1-0.6
			c0,4.7,0,9.5,0,14.2c0,0.8,0,1.7,0.2,2.4c0.1,0.5,0.4,0.9,0.7,1.4c-2.5,0-5.1,0-7.6,0c0.4-0.5,0.7-1,0.8-1.6
			c0.2-0.8,0.1-1.6,0.2-2.4c0-4.7,0-9.3,0-14c-1.9,0-3.9,0.1-5.8,0.6c-1.2,0.3-2.4,0.7-3.3,1.4C17.3,62.2,17.3,60.5,17.3,58.8z"/>
		<path class="st13" d="M43.3,58.8c5.5,0,11,0,16.5,0c0,1.7,0,3.5,0,5.2c-0.8-0.7-1.8-1-2.8-1.3c-1.4-0.4-2.8-0.6-4.2-0.7
			c-1-0.1-2.1,0-3.1,0c0,1.9,0,3.8,0,5.6c2.1,0,4.3,0.1,6.3-0.6c0,1.4,0,2.8,0,4.2c-2-0.7-4.2-0.5-6.3-0.6c0,2,0,4.1,0,6.1
			c0.9,0,1.8,0,2.7,0c1.8,0,3.6-0.2,5.4-0.7c1-0.3,2.1-0.6,2.9-1.3c0,1.7,0,3.5,0,5.2c-5.8,0-11.6,0-17.3,0c0.3-0.4,0.6-0.8,0.8-1.3
			c0.2-0.8,0.2-1.6,0.2-2.4c0-4.6,0-9.2,0-13.8c0-0.8,0-1.6-0.2-2.3C44,59.6,43.7,59.2,43.3,58.8z"/>
	</g>
	<g>
		<path class="st14" d="M20.2,88.3c1.3-1.5,3.1-2.5,5.1-2.5c4.5,0,8.9,0,13.4,0c0.4,0,0.8,0,1.1,0.1c-1.6,0.8-2.9,2-4.1,3.2
			c-0.8,0.8-1.7,1.6-2.8,2.1c-0.8,0.4-1.7,0.5-2.6,0.6H16.3c0.1-0.3,0.5-0.5,0.8-0.7C18.2,90.2,19.2,89.2,20.2,88.3z"/>
		<path class="st14" d="M44.1,87.8c1.2-1.2,2.9-2,4.6-2c4.7,0,9.4,0,14,0c0.2,0,0.4,0,0.5,0.1c-1.5,0.7-2.7,1.8-3.8,2.9
			c-0.9,0.9-1.9,1.8-3,2.3c-0.8,0.4-1.8,0.5-2.7,0.6H39.8c0.1-0.4,0.6-0.5,0.8-0.7C41.9,90,43,88.9,44.1,87.8z"/>
		<path class="st14" d="M67.9,87.4c1.2-1,2.7-1.7,4.3-1.7c4.8,0,9.6,0,14.4,0c-0.1,0.1-0.2,0.2-0.3,0.2c-1.1,0.6-2.1,1.4-3,2.3
			c-1.1,1-2.1,2.1-3.4,2.8c-0.9,0.4-1.8,0.5-2.7,0.6H63.2c0.1-0.3,0.5-0.4,0.7-0.6c1-0.7,1.8-1.5,2.7-2.3
			C67.1,88.3,67.4,87.8,67.9,87.4z"/>
		<path class="st14" d="M91,87.7c1.2-1.2,2.9-2,4.7-2c4.8,0,9.6,0,14.4,0c-0.1,0.1-0.2,0.2-0.3,0.3c-1.1,0.6-2.1,1.4-3,2.3
			c-1,1-2,2-3.3,2.7c-0.9,0.5-1.9,0.6-2.9,0.7H86.6c0-0.1,0.1-0.2,0.2-0.3C88.4,90.4,89.7,89.1,91,87.7z"/>
		<path class="st14" d="M114.8,87.4c1.2-1,2.7-1.7,4.3-1.7c4.8,0,9.6,0,14.4,0c-0.2,0.3-0.6,0.4-0.8,0.5c-0.9,0.6-1.8,1.3-2.6,2.1
			c-1,0.9-1.9,1.9-3.1,2.5c-1,0.5-2.1,0.7-3.1,0.8h-13.8c0.1-0.3,0.4-0.4,0.7-0.6c1-0.7,1.8-1.5,2.7-2.3
			C113.9,88.3,114.3,87.8,114.8,87.4z"/>
	</g>
</g>
</svg>
