<?xml version="1.0" encoding="utf-8"?>
<!-- Generator: Adobe Illustrator 23.0.3, SVG Export Plug-In . SVG Version: 6.00 Build 0)  -->
<svg version="1.1" id="Layer_1" xmlns="http://www.w3.org/2000/svg" xmlns:xlink="http://www.w3.org/1999/xlink" x="0px" y="0px"
	 viewBox="0 0 72.9 28.1" style="enable-background:new 0 0 72.9 28.1;" xml:space="preserve">
<style type="text/css">
	.st0{fill:#1BA27A;}
	.st1{fill:#FFFFFF;}
	.st2{fill:#FF060A;}
	.st3{enable-background:new    ;}
</style>
<g>
	<path class="st0" d="M28.4,14.1c0,6.5-5.3,11.9-11.9,11.9C10,26,4.6,20.7,4.6,14.1C4.6,7.5,10,2.2,16.5,2.2
		C23.1,2.2,28.4,7.5,28.4,14.1z"/>
	<path class="st1" d="M22.1,8.2H10.8v2.7h4.3v4h2.7v-4h4.3C22.1,10.9,22.1,8.2,22.1,8.2z"/>
	<path class="st1" d="M16.5,15.3c-3.5,0-6.4-0.6-6.4-1.2c0-0.7,2.9-1.2,6.4-1.2s6.4,0.6,6.4,1.2S20,15.3,16.5,15.3z M23.6,14.3
		c0-0.9-3.2-1.6-7.2-1.6s-7.2,0.7-7.2,1.6c0,0.8,2.5,1.4,5.8,1.6v5.7h2.7v-5.7C21.1,15.7,23.6,15.1,23.6,14.3z"/>
	<ellipse class="st2" cx="26.4" cy="14.5" rx="6.7" ry="6.8"/>
	<path class="st1" d="M30.9,13.2c-0.4-0.4-1-1-1.5-1.4l0,0c0,0-0.1-0.1-0.2-0.1l0,0c-1.1-0.2-6.5-1.2-6.6-1.2h-0.1l0,0l-0.1,0.1l0,0
		v0.1l0,0c0.6,1.7,3,7.2,3.4,8.4c0,0.1,0.1,0.3,0.2,0.3l0,0c0.1,0,0.3-0.3,0.3-0.3s4.1-4.9,4.5-5.5c0.1-0.1,0.1-0.1,0.1-0.2
		C30.9,13.3,30.9,13.3,30.9,13.2C31,13.3,30.9,13.3,30.9,13.2L30.9,13.2z M27.4,13.8l1.7-1.4l1,0.9L27.4,13.8z M26.7,13.7l-3-2.5
		l4.8,0.9L26.7,13.7z M27,14.4l3.1-0.5l-3.5,4.2L27,14.4z M23.3,11.5l3.1,2.7L26,18.1L23.3,11.5z"/>
</g>
<g class="st3">
	<path d="M36.7,11.9h5.8v1.5h-1.9V18h-1.9v-4.6h-1.9V11.9z"/>
	<path d="M43.3,18v-6.1h3.2c0.6,0,1,0,1.3,0.2c0.3,0.1,0.6,0.3,0.7,0.6c0.2,0.3,0.3,0.6,0.3,1c0,0.3-0.1,0.6-0.2,0.9
		c-0.1,0.2-0.3,0.4-0.6,0.6c-0.2,0.1-0.4,0.2-0.7,0.2c0.2,0.1,0.4,0.2,0.5,0.2c0.1,0,0.2,0.2,0.3,0.3c0.1,0.2,0.2,0.3,0.3,0.4
		l0.9,1.8h-2.1l-1-1.9c-0.1-0.2-0.2-0.4-0.3-0.5c-0.1-0.1-0.3-0.1-0.5-0.1h-0.2V18H43.3z M45.2,14.3H46c0.1,0,0.3,0,0.5-0.1
		c0.1,0,0.2-0.1,0.3-0.2c0.1-0.1,0.1-0.2,0.1-0.4c0-0.2-0.1-0.4-0.2-0.5c-0.1-0.1-0.4-0.2-0.7-0.2h-0.8V14.3z"/>
	<path d="M53.9,15.5l1.7,0.5c-0.1,0.5-0.3,0.9-0.5,1.2s-0.5,0.5-0.9,0.7c-0.4,0.2-0.8,0.2-1.4,0.2c-0.7,0-1.2-0.1-1.6-0.3
		c-0.4-0.2-0.8-0.5-1.1-1c-0.3-0.5-0.5-1.1-0.5-1.9c0-1,0.3-1.8,0.8-2.3c0.5-0.5,1.3-0.8,2.3-0.8c0.8,0,1.4,0.2,1.8,0.5
		c0.4,0.3,0.8,0.8,1,1.4L53.8,14c-0.1-0.2-0.1-0.3-0.2-0.4c-0.1-0.1-0.2-0.3-0.4-0.3c-0.2-0.1-0.3-0.1-0.5-0.1c-0.4,0-0.8,0.2-1,0.5
		c-0.2,0.3-0.3,0.7-0.3,1.2c0,0.7,0.1,1.1,0.3,1.4c0.2,0.3,0.5,0.4,0.9,0.4c0.4,0,0.6-0.1,0.8-0.3S53.8,15.9,53.9,15.5z"/>
	<path d="M61.2,18h-5.1c0.1-0.5,0.2-1,0.5-1.4c0.3-0.4,0.9-1,1.7-1.6c0.5-0.4,0.8-0.7,1-0.8s0.2-0.4,0.2-0.5c0-0.2-0.1-0.3-0.2-0.5
		c-0.1-0.1-0.3-0.2-0.5-0.2c-0.2,0-0.4,0.1-0.5,0.2c-0.1,0.1-0.2,0.4-0.3,0.7l-1.7-0.1c0.1-0.5,0.2-0.9,0.4-1.1s0.4-0.5,0.8-0.6
		c0.3-0.1,0.8-0.2,1.4-0.2c0.6,0,1.1,0.1,1.4,0.2c0.3,0.1,0.6,0.3,0.8,0.6c0.2,0.3,0.3,0.6,0.3,1c0,0.4-0.1,0.7-0.3,1.1
		c-0.2,0.3-0.6,0.7-1.2,1.1c-0.3,0.2-0.6,0.4-0.7,0.5c-0.1,0.1-0.3,0.2-0.4,0.4h2.7V18z"/>
	<path d="M61.9,14.9c0-1.2,0.2-2,0.6-2.5s1.1-0.7,1.9-0.7c0.4,0,0.8,0.1,1,0.2c0.3,0.1,0.5,0.2,0.6,0.4c0.2,0.2,0.3,0.3,0.4,0.5
		c0.1,0.2,0.2,0.4,0.2,0.6c0.1,0.5,0.2,0.9,0.2,1.4c0,1.1-0.2,1.9-0.6,2.4s-1,0.8-1.9,0.8c-0.5,0-0.9-0.1-1.3-0.2s-0.6-0.4-0.8-0.7
		c-0.1-0.2-0.3-0.5-0.3-0.9C62,15.8,61.9,15.4,61.9,14.9z M63.6,14.9c0,0.8,0.1,1.3,0.2,1.6c0.1,0.3,0.3,0.4,0.6,0.4
		c0.2,0,0.3-0.1,0.5-0.2c0.1-0.1,0.2-0.3,0.3-0.6c0.1-0.3,0.1-0.7,0.1-1.2c0-0.8-0.1-1.4-0.2-1.6c-0.1-0.3-0.3-0.4-0.6-0.4
		c-0.3,0-0.5,0.1-0.6,0.4C63.7,13.6,63.6,14.1,63.6,14.9z"/>
</g>
</svg>
